<svg width="381" height="300" xmlns="http://www.w3.org/2000/svg" xmlns:xlink="http://www.w3.org/1999/xlink" version="1.1" baseProfile="full" viewBox="0 0 381 300">
<rect width="381" height="300" x="0" y="0" id="0" fill="none" fill-opacity="1"></rect>
<path d="M57.15 225.5L342.9 225.5" fill="none" stroke="#E0E6F1"></path>
<path d="M57.15 183.5L342.9 183.5" fill="none" stroke="#E0E6F1"></path>
<path d="M57.15 141.5L342.9 141.5" fill="none" stroke="#E0E6F1"></path>
<path d="M57.15 99.5L342.9 99.5" fill="none" stroke="#E0E6F1"></path>
<path d="M57.15 57.5L342.9 57.5" fill="none" stroke="#E0E6F1"></path>
<path d="M57.15 15.5L342.9 15.5" fill="none" stroke="#E0E6F1"></path>
<text dominant-baseline="central" text-anchor="middle" style="font-size:12px;font-family:Microsoft YaHei;" y="-31" transform="matrix(0,-1,1,0,34.15,120)" fill="#6E7079">Count</text>
<path d="M57.15 225.5L342.9 225.5" fill="none" stroke="#6E7079" stroke-linecap="round"></path>
<text dominant-baseline="central" text-anchor="middle" style="font-size:12px;font-family:Microsoft YaHei;" y="16" transform="translate(200.025 240)" fill="#6E7079">Date</text>
<path d="M128.5 225L128.5 230" fill="none" stroke="#6E7079"></path>
<path d="M224.5 225L224.5 230" fill="none" stroke="#6E7079"></path>
<path d="M319.5 225L319.5 230" fill="none" stroke="#6E7079"></path>
<path d="M343.5 225L343.5 230" fill="none" stroke="#6E7079"></path>
<text dominant-baseline="central" text-anchor="end" style="font-size:10px;font-family:Microsoft YaHei;" transform="translate(51.15 225)" fill="#6E7079">0</text>
<text dominant-baseline="central" text-anchor="end" style="font-size:10px;font-family:Microsoft YaHei;" transform="translate(51.15 183)" fill="#6E7079">20,000</text>
<text dominant-baseline="central" text-anchor="end" style="font-size:10px;font-family:Microsoft YaHei;" transform="translate(51.15 141)" fill="#6E7079">40,000</text>
<text dominant-baseline="central" text-anchor="end" style="font-size:10px;font-family:Microsoft YaHei;" transform="translate(51.15 99)" fill="#6E7079">60,000</text>
<text dominant-baseline="central" text-anchor="end" style="font-size:10px;font-family:Microsoft YaHei;" transform="translate(51.15 57)" fill="#6E7079">80,000</text>
<text dominant-baseline="central" text-anchor="end" style="font-size:10px;font-family:Microsoft YaHei;" transform="translate(51.15 15)" fill="#6E7079">100,000</text>
<text dominant-baseline="central" text-anchor="middle" style="font-size:12px;font-family:Microsoft YaHei;" xml:space="preserve" y="6" transform="translate(140.4938 233)" fill="#6E7079">Apr 2024</text>
<text dominant-baseline="central" text-anchor="middle" style="font-size:12px;font-family:Microsoft YaHei;" xml:space="preserve" y="6" transform="translate(235.7438 233)" fill="#6E7079">Aug 2024</text>
<text dominant-baseline="central" text-anchor="middle" style="font-size:12px;font-family:Microsoft YaHei;" xml:space="preserve" y="6" transform="translate(330.9938 233)" fill="#6E7079">Dec 2024</text>
<path d="M60.8409 225l16.4306 0l0 -184.1742l-16.4306 0Z" fill="#0ba3da" stroke="#0ba3da"></path>
<path d="M84.6534 225l16.4306 0l0 -110.3319l-16.4306 0Z" fill="#0ba3da" stroke="#0ba3da"></path>
<path d="M108.4659 225l16.4306 0l0 -69.7935l-16.4306 0Z" fill="rgb(11,163,218)" stroke="#0ba3da"></path>
<path d="M132.2784 225l16.4306 0l0 -52.0695l-16.4306 0Z" fill="rgb(11,163,218)" stroke="#0ba3da"></path>
<path d="M156.0909 225l16.4306 0l0 -67.8951l-16.4306 0Z" fill="rgb(11,163,218)" stroke="#0ba3da"></path>
<path d="M179.9034 225l16.4306 0l0 -93.45l-16.4306 0Z" fill="rgb(11,163,218)" stroke="#0ba3da"></path>
<path d="M203.7159 225l16.4306 0l0 -122.6127l-16.4306 0Z" fill="rgb(11,163,218)" stroke="#0ba3da"></path>
<path d="M227.5284 225l16.4306 0l0 -106.6464l-16.4306 0Z" fill="rgb(11,163,218)" stroke="#0ba3da"></path>
<path d="M251.3409 225l16.4306 0l0 -88.4226l-16.4306 0Z" fill="rgb(11,163,218)" stroke="#0ba3da"></path>
<path d="M275.1534 225l16.4306 0l0 -64.8732l-16.4306 0Z" fill="#0ba3da" stroke="#0ba3da"></path>
<path d="M298.9659 225l16.4306 0l0 -23.1441l-16.4306 0Z" fill="rgb(11,163,218)" stroke="#0ba3da"></path>
<path d="M322.7784 225l16.4306 0l0 -0.0651l-16.4306 0Z" fill="rgb(11,163,218)" stroke="#0ba3da"></path>
<text dominant-baseline="central" text-anchor="middle" style="font-size:9px;font-family:Microsoft YaHei;" y="-4.5" transform="translate(69.0563 35.3258)" fill="#333" stroke="rgb(255,255,255)" stroke-width="2" paint-order="stroke" stroke-miterlimit="2">87,702</text>
<text dominant-baseline="central" text-anchor="middle" style="font-size:9px;font-family:Microsoft YaHei;" y="-4.5" transform="translate(92.8688 109.1681)" fill="#333" stroke="rgb(255,255,255)" stroke-width="2" paint-order="stroke" stroke-miterlimit="2">52,539</text>
<text dominant-baseline="central" text-anchor="middle" style="font-size:9px;font-family:Microsoft YaHei;" y="-4.5" transform="translate(116.6813 149.7065)" fill="#333" stroke="rgb(255,255,255)" stroke-width="2" paint-order="stroke" stroke-miterlimit="2">33,235</text>
<text dominant-baseline="central" text-anchor="middle" style="font-size:9px;font-family:Microsoft YaHei;" y="-4.5" transform="translate(140.4937 167.4305)" fill="#333" stroke="rgb(255,255,255)" stroke-width="2" paint-order="stroke" stroke-miterlimit="2">24,795</text>
<text dominant-baseline="central" text-anchor="middle" style="font-size:9px;font-family:Microsoft YaHei;" y="-4.5" transform="translate(164.3062 151.6049)" fill="#333" stroke="rgb(255,255,255)" stroke-width="2" paint-order="stroke" stroke-miterlimit="2">32,331</text>
<text dominant-baseline="central" text-anchor="middle" style="font-size:9px;font-family:Microsoft YaHei;" y="-4.5" transform="translate(188.1187 126.05)" fill="#333" stroke="rgb(255,255,255)" stroke-width="2" paint-order="stroke" stroke-miterlimit="2">44,500</text>
<text dominant-baseline="central" text-anchor="middle" style="font-size:9px;font-family:Microsoft YaHei;" y="-4.5" transform="translate(211.9313 96.8873)" fill="#333" stroke="rgb(255,255,255)" stroke-width="2" paint-order="stroke" stroke-miterlimit="2">58,387</text>
<text dominant-baseline="central" text-anchor="middle" style="font-size:9px;font-family:Microsoft YaHei;" y="-4.5" transform="translate(235.7438 112.8536)" fill="#333" stroke="rgb(255,255,255)" stroke-width="2" paint-order="stroke" stroke-miterlimit="2">50,784</text>
<text dominant-baseline="central" text-anchor="middle" style="font-size:9px;font-family:Microsoft YaHei;" y="-4.5" transform="translate(259.5563 131.0774)" fill="#333" stroke="rgb(255,255,255)" stroke-width="2" paint-order="stroke" stroke-miterlimit="2">42,106</text>
<text dominant-baseline="central" text-anchor="middle" style="font-size:9px;font-family:Microsoft YaHei;" y="-4.5" transform="translate(283.3688 154.6268)" fill="#333" stroke="rgb(255,255,255)" stroke-width="2" paint-order="stroke" stroke-miterlimit="2">30,892</text>
<text dominant-baseline="central" text-anchor="middle" style="font-size:9px;font-family:Microsoft YaHei;" y="-4.5" transform="translate(307.1813 196.3559)" fill="#333" stroke="rgb(255,255,255)" stroke-width="2" paint-order="stroke" stroke-miterlimit="2">11,021</text>
<text dominant-baseline="central" text-anchor="middle" style="font-size:9px;font-family:Microsoft YaHei;" y="-4.5" transform="translate(330.9938 219.4349)" fill="#333" stroke="rgb(255,255,255)" stroke-width="2" paint-order="stroke" stroke-miterlimit="2">31</text>
<path d="M0 0l285.75 0l0 30l-285.75 0Z" transform="matrix(1,0,0,-1,59.95,303.5)" fill="rgb(47,69,84)" fill-opacity="0"></path>
<g clip-path="url(#zr1-c0)">
<polygon points="285.8 0 0 0 0 20.9 7.9 24.4 15.9 18.6 23.8 16.9 31.8 13.1 39.7 12.2 47.6 12.8 55.6 13.7 63.5 11.5 71.4 10.1 79.4 9.9 87.3 10 95.3 10.5 103.2 9 111.1 8.2 119.1 8 127 7.3 134.9 7 142.9 6.4 150.8 6.4 158.8 6.9 166.7 7.1 174.6 7 182.6 6.9 190.5 7.1 198.4 6.8 206.4 6.3 214.3 6.1 222.3 6 230.2 6.1 238.1 6.2 246.1 6.4 254 6.3 261.9 6.2 269.9 6 277.8 5.8 285.8 5.6" transform="matrix(1,0,0,-1,59.95,303.5)" fill="#d2dbee" fill-opacity="0.2"></polygon>
</g>
<g clip-path="url(#zr1-c1)">
<polygon points="285.8 0 0 0 0 20.9 7.9 24.4 15.9 18.6 23.8 16.9 31.8 13.1 39.7 12.2 47.6 12.8 55.6 13.7 63.5 11.5 71.4 10.1 79.4 9.9 87.3 10 95.3 10.5 103.2 9 111.1 8.2 119.1 8 127 7.3 134.9 7 142.9 6.4 150.8 6.4 158.8 6.9 166.7 7.1 174.6 7 182.6 6.9 190.5 7.1 198.4 6.8 206.4 6.3 214.3 6.1 222.3 6 230.2 6.1 238.1 6.2 246.1 6.4 254 6.3 261.9 6.2 269.9 6 277.8 5.8 285.8 5.6" transform="matrix(1,0,0,-1,59.95,303.5)" fill="#8fb0f7" fill-opacity="0.2"></polygon>
</g>
<g clip-path="url(#zr1-c2)">
<polygon points="285.8 0 0 0 0 20.9 7.9 24.4 15.9 18.6 23.8 16.9 31.8 13.1 39.7 12.2 47.6 12.8 55.6 13.7 63.5 11.5 71.4 10.1 79.4 9.9 87.3 10 95.3 10.5 103.2 9 111.1 8.2 119.1 8 127 7.3 134.9 7 142.9 6.4 150.8 6.4 158.8 6.9 166.7 7.1 174.6 7 182.6 6.9 190.5 7.1 198.4 6.8 206.4 6.3 214.3 6.1 222.3 6 230.2 6.1 238.1 6.2 246.1 6.4 254 6.3 261.9 6.2 269.9 6 277.8 5.8 285.8 5.6" transform="matrix(1,0,0,-1,59.95,303.5)" fill="#d2dbee" fill-opacity="0.2"></polygon>
</g>
<g clip-path="url(#zr1-c0)">
<polyline points="0 20.9 7.9 24.4 15.9 18.6 23.8 16.9 31.8 13.1 39.7 12.2 47.6 12.8 55.6 13.7 63.5 11.5 71.4 10.1 79.4 9.9 87.3 10 95.3 10.5 103.2 9 111.1 8.2 119.1 8 127 7.3 134.9 7 142.9 6.4 150.8 6.4 158.8 6.9 166.7 7.1 174.6 7 182.6 6.9 190.5 7.1 198.4 6.8 206.4 6.3 214.3 6.1 222.3 6 230.2 6.1 238.1 6.2 246.1 6.4 254 6.3 261.9 6.2 269.9 6 277.8 5.8 285.8 5.6" transform="matrix(1,0,0,-1,59.95,303.5)" fill="none" stroke="#d2dbee" stroke-width="0.5"></polyline>
</g>
<g clip-path="url(#zr1-c1)">
<polyline points="0 20.9 7.9 24.4 15.9 18.6 23.8 16.9 31.8 13.1 39.7 12.2 47.6 12.8 55.6 13.7 63.5 11.5 71.4 10.1 79.4 9.9 87.3 10 95.3 10.5 103.2 9 111.1 8.2 119.1 8 127 7.3 134.9 7 142.9 6.4 150.8 6.4 158.8 6.9 166.7 7.1 174.6 7 182.6 6.9 190.5 7.1 198.4 6.8 206.4 6.3 214.3 6.1 222.3 6 230.2 6.1 238.1 6.2 246.1 6.4 254 6.3 261.9 6.2 269.9 6 277.8 5.8 285.8 5.6" transform="matrix(1,0,0,-1,59.95,303.5)" fill="none" stroke="#8fb0f7" stroke-width="0.5"></polyline>
</g>
<g clip-path="url(#zr1-c2)">
<polyline points="0 20.9 7.9 24.4 15.9 18.6 23.8 16.9 31.8 13.1 39.7 12.2 47.6 12.8 55.6 13.7 63.5 11.5 71.4 10.1 79.4 9.9 87.3 10 95.3 10.5 103.2 9 111.1 8.2 119.1 8 127 7.3 134.9 7 142.9 6.4 150.8 6.4 158.8 6.9 166.7 7.1 174.6 7 182.6 6.9 190.5 7.1 198.4 6.8 206.4 6.3 214.3 6.1 222.3 6 230.2 6.1 238.1 6.2 246.1 6.4 254 6.3 261.9 6.2 269.9 6 277.8 5.8 285.8 5.6" transform="matrix(1,0,0,-1,59.95,303.5)" fill="none" stroke="#d2dbee" stroke-width="0.5"></polyline>
</g>
<path d="M0 0l285.75 0l0 30l-285.75 0Z" transform="matrix(1,0,0,-1,59.95,303.5)" fill="none"></path>
<path d="M196.05 0l89.7 0l0 30l-89.7 0Z" transform="matrix(1,0,0,-1,59.95,303.5)" fill="rgb(135,175,255)" fill-opacity="0.2"></path>
<path d="M3.5 0.5L282.5 0.5A3 3 0 0 1 285.5 3.5L285.5 26.5A3 3 0 0 1 282.5 29.5L3.5 29.5A3 3 0 0 1 0.5 26.5L0.5 3.5A3 3 0 0 1 3.5 0.5" transform="matrix(1,0,0,-1,59.95,303.5)" fill="rgb(0,0,0)" fill-opacity="0" stroke="#d2dbee"></path>
<path d="M196.05 29.5L285.75 29.5L285.75 34.5A2 2 0 0 1 283.75 36.5L198.05 36.5A2 2 0 0 1 196.05 34.5L196.05 29.5" transform="matrix(1,0,0,-1,59.95,303.5)" fill="rgb(210,219,238)" fill-opacity="0.7"></path>
<path d="M-2.2408 -1.6796C-1.8674 -1.6796 -1.6817 -1.4939 -1.6817 -1.1204L-1.6817 1.1204C-1.6817 1.4939 -1.8674 1.6796 -2.2408 1.6796C-2.6143 1.6796 -2.8 1.4939 -2.8 1.1204L-2.8 -1.1204C-2.8 -1.4939 -2.6143 -1.6796 -2.2408 -1.6796ZM0 -1.6796C0.3735 -1.6796 0.5592 -1.4939 0.5592 -1.1204L0.5592 1.1204C0.5592 1.4939 0.3735 1.6796 0 1.6796C-0.3735 1.6796 -0.5592 1.4939 -0.5592 1.1204L-0.5592 -1.1204C-0.5592 -1.4939 -0.3735 -1.6796 0 -1.6796ZM2.2408 -1.6796C2.6143 -1.6796 2.8 -1.4939 2.8 -1.1204L2.8 1.1204C2.8 1.4939 2.6143 1.6796 2.2408 1.6796C1.8674 1.6796 1.6817 1.4939 1.6817 1.1204L1.6817 -1.1204C1.6796 -1.4939 1.8674 -1.6796 2.2408 -1.6796Z" transform="matrix(1,0,0,-1,300.85,270.5)" fill="#fff"></path>
<path d="M0.07 0.1215L0.07 0L-0.0608 0L-0.0608 0.1215C-0.5188 0.1495 -0.8833 0.5327 -0.8833 1C-0.8833 1.4673 -0.5188 1.8505 -0.0608 1.8785L-0.0608 2L0.0607 2L0.0607 1.8785C0.5186 1.8505 0.8831 1.4673 0.8831 1C0.8924 0.5327 0.5279 0.1495 0.07 0.1215ZM0.313 1.2897L-0.3038 1.2897L-0.3038 1.1589L0.313 1.1589L0.313 1.2897ZM0.313 0.8411L-0.3038 0.8411L-0.3038 0.7103L0.313 0.7103L0.313 0.8411Z" transform="matrix(12,0,0,-12,257,300.5)" fill="rgb(255,255,255)" stroke="rgb(172,184,209)" stroke-width="0.08333333333333333" filter="url(#zr1-s0)"></path>
<path d="M0.07 0.1215L0.07 0L-0.0608 0L-0.0608 0.1215C-0.5188 0.1495 -0.8833 0.5327 -0.8833 1C-0.8833 1.4673 -0.5188 1.8505 -0.0608 1.8785L-0.0608 2L0.0607 2L0.0607 1.8785C0.5186 1.8505 0.8831 1.4673 0.8831 1C0.8924 0.5327 0.5279 0.1495 0.07 0.1215ZM0.313 1.2897L-0.3038 1.2897L-0.3038 1.1589L0.313 1.1589L0.313 1.2897ZM0.313 0.8411L-0.3038 0.8411L-0.3038 0.7103L0.313 0.7103L0.313 0.8411Z" transform="matrix(12,0,0,-12,344.7,300.5)" fill="rgb(255,255,255)" stroke="rgb(172,184,209)" stroke-width="0.08333333333333333" filter="url(#zr1-s0)"></path>
<defs >
<clipPath id="zr1-c0">
<path d="M0 0l196.05 0l0 30l-196.05 0Z" transform="matrix(1,0,0,-1,59.95,303.5)" fill="#000"></path>
</clipPath>
<clipPath id="zr1-c1">
<path d="M196.05 0l89.7 0l0 30l-89.7 0Z" transform="matrix(1,0,0,-1,59.95,303.5)" fill="#000"></path>
</clipPath>
<clipPath id="zr1-c2">
<path d="M285.75 0l0 0l0 30l0 0Z" transform="matrix(1,0,0,-1,59.95,303.5)" fill="#000"></path>
</clipPath>
<filter id="zr1-s0" x="-100%" y="-100%" width="300%" height="300%">
<feDropShadow dx="0.16666666666666666" dy="-0.16666666666666666" stdDeviation="0.125 -0.125" flood-color="rgb(0,0,0)" flood-opacity="0.6"></feDropShadow>
</filter>
</defs>
</svg>
