<svg width="319" height="300" xmlns="http://www.w3.org/2000/svg" xmlns:xlink="http://www.w3.org/1999/xlink" version="1.1" baseProfile="full" viewBox="0 0 319 300">
<rect width="319" height="300" x="0" y="0" id="0" fill="none" fill-opacity="1"></rect>
<path d="M47.85 225.5L287.1 225.5" fill="none" stroke="#E0E6F1"></path>
<path d="M47.85 183.5L287.1 183.5" fill="none" stroke="#E0E6F1"></path>
<path d="M47.85 141.5L287.1 141.5" fill="none" stroke="#E0E6F1"></path>
<path d="M47.85 99.5L287.1 99.5" fill="none" stroke="#E0E6F1"></path>
<path d="M47.85 57.5L287.1 57.5" fill="none" stroke="#E0E6F1"></path>
<path d="M47.85 15.5L287.1 15.5" fill="none" stroke="#E0E6F1"></path>
<text dominant-baseline="central" text-anchor="middle" style="font-size:12px;font-family:sans-serif;" y="-30.700042724609375" transform="matrix(0,-1,1,0,24.85,120)" fill="#6E7079">Count</text>
<path d="M47.85 225.5L287.1 225.5" fill="none" stroke="#6E7079" stroke-linecap="round"></path>
<text dominant-baseline="central" text-anchor="middle" style="font-size:12px;font-family:sans-serif;" y="15.700042724609375" transform="translate(167.475 240)" fill="#6E7079">Date</text>
<path d="M91.5 225L91.5 230" fill="none" stroke="#6E7079"></path>
<path d="M178.5 225L178.5 230" fill="none" stroke="#6E7079"></path>
<path d="M265.5 225L265.5 230" fill="none" stroke="#6E7079"></path>
<path d="M287.5 225L287.5 230" fill="none" stroke="#6E7079"></path>
<text dominant-baseline="central" text-anchor="end" style="font-size:10px;font-family:sans-serif;" transform="translate(41.85 225)" fill="#6E7079">0</text>
<text dominant-baseline="central" text-anchor="end" style="font-size:10px;font-family:sans-serif;" transform="translate(41.85 183)" fill="#6E7079">20,000</text>
<text dominant-baseline="central" text-anchor="end" style="font-size:10px;font-family:sans-serif;" transform="translate(41.85 141)" fill="#6E7079">40,000</text>
<text dominant-baseline="central" text-anchor="end" style="font-size:10px;font-family:sans-serif;" transform="translate(41.85 99)" fill="#6E7079">60,000</text>
<text dominant-baseline="central" text-anchor="end" style="font-size:10px;font-family:sans-serif;" transform="translate(41.85 57)" fill="#6E7079">80,000</text>
<text dominant-baseline="central" text-anchor="end" style="font-size:10px;font-family:sans-serif;" transform="translate(41.85 15)" fill="#6E7079">100,000</text>
<text dominant-baseline="central" text-anchor="middle" style="font-size:12px;font-family:sans-serif;" xml:space="preserve" y="5.700042724609375" transform="translate(102.225 233)" fill="#6E7079">Mar 2024</text>
<text dominant-baseline="central" text-anchor="middle" style="font-size:12px;font-family:sans-serif;" xml:space="preserve" y="5.700042724609375" transform="translate(189.225 233)" fill="#6E7079">Jul 2024</text>
<text dominant-baseline="central" text-anchor="middle" style="font-size:12px;font-family:sans-serif;" xml:space="preserve" y="5.700042724609375" transform="translate(276.225 233)" fill="#6E7079">Nov 2024</text>
<path d="M51.2213 225l15.0075 0l0 -183.9642l-15.0075 0Z" fill="#0ba3da" stroke="#0ba3da"></path>
<path d="M72.9713 225l15.0075 0l0 -110.2332l-15.0075 0Z" fill="#0ba3da" stroke="#0ba3da"></path>
<path d="M94.7213 225l15.0075 0l0 -69.6528l-15.0075 0Z" fill="#0ba3da" stroke="#0ba3da"></path>
<path d="M116.4713 225l15.0075 0l0 -51.8007l-15.0075 0Z" fill="#0ba3da" stroke="#0ba3da"></path>
<path d="M138.2213 225l15.0075 0l0 -67.578l-15.0075 0Z" fill="#0ba3da" stroke="#0ba3da"></path>
<path d="M159.9713 225l15.0075 0l0 -92.4966l-15.0075 0Z" fill="#0ba3da" stroke="#0ba3da"></path>
<path d="M181.7213 225l15.0075 0l0 -120.2733l-15.0075 0Z" fill="#0ba3da" stroke="#0ba3da"></path>
<path d="M203.4713 225l15.0075 0l0 -103.9878l-15.0075 0Z" fill="#0ba3da" stroke="#0ba3da"></path>
<path d="M225.2213 225l15.0075 0l0 -86.4066l-15.0075 0Z" fill="#0ba3da" stroke="#0ba3da"></path>
<path d="M246.9713 225l15.0075 0l0 -56.9121l-15.0075 0Z" fill="#0ba3da" stroke="#0ba3da"></path>
<path d="M268.7213 225l15.0075 0l0 -6.4743l-15.0075 0Z" fill="#0ba3da" stroke="#0ba3da"></path>
<text dominant-baseline="central" text-anchor="middle" style="font-size:9px;font-family:sans-serif;" y="-4.275032043457031" transform="translate(58.725 35.5358)" fill="#333" stroke="rgb(255,255,255)" stroke-width="2" paint-order="stroke" stroke-miterlimit="2">87,602</text>
<text dominant-baseline="central" text-anchor="middle" style="font-size:9px;font-family:sans-serif;" y="-4.275032043457031" transform="translate(80.475 109.2668)" fill="#333" stroke="rgb(255,255,255)" stroke-width="2" paint-order="stroke" stroke-miterlimit="2">52,492</text>
<text dominant-baseline="central" text-anchor="middle" style="font-size:9px;font-family:sans-serif;" y="-4.275032043457031" transform="translate(102.225 149.8472)" fill="#333" stroke="rgb(255,255,255)" stroke-width="2" paint-order="stroke" stroke-miterlimit="2">33,168</text>
<text dominant-baseline="central" text-anchor="middle" style="font-size:9px;font-family:sans-serif;" y="-4.275032043457031" transform="translate(123.975 167.6993)" fill="#333" stroke="rgb(255,255,255)" stroke-width="2" paint-order="stroke" stroke-miterlimit="2">24,667</text>
<text dominant-baseline="central" text-anchor="middle" style="font-size:9px;font-family:sans-serif;" y="-4.275032043457031" transform="translate(145.725 151.922)" fill="#333" stroke="rgb(255,255,255)" stroke-width="2" paint-order="stroke" stroke-miterlimit="2">32,180</text>
<text dominant-baseline="central" text-anchor="middle" style="font-size:9px;font-family:sans-serif;" y="-4.275032043457031" transform="translate(167.475 127.0034)" fill="#333" stroke="rgb(255,255,255)" stroke-width="2" paint-order="stroke" stroke-miterlimit="2">44,046</text>
<text dominant-baseline="central" text-anchor="middle" style="font-size:9px;font-family:sans-serif;" y="-4.275032043457031" transform="translate(189.225 99.2267)" fill="#333" stroke="rgb(255,255,255)" stroke-width="2" paint-order="stroke" stroke-miterlimit="2">57,273</text>
<text dominant-baseline="central" text-anchor="middle" style="font-size:9px;font-family:sans-serif;" y="-4.275032043457031" transform="translate(210.975 115.5122)" fill="#333" stroke="rgb(255,255,255)" stroke-width="2" paint-order="stroke" stroke-miterlimit="2">49,518</text>
<text dominant-baseline="central" text-anchor="middle" style="font-size:9px;font-family:sans-serif;" y="-4.275032043457031" transform="translate(232.725 133.0934)" fill="#333" stroke="rgb(255,255,255)" stroke-width="2" paint-order="stroke" stroke-miterlimit="2">41,146</text>
<text dominant-baseline="central" text-anchor="middle" style="font-size:9px;font-family:sans-serif;" y="-4.275032043457031" transform="translate(254.475 162.5879)" fill="#333" stroke="rgb(255,255,255)" stroke-width="2" paint-order="stroke" stroke-miterlimit="2">27,101</text>
<text dominant-baseline="central" text-anchor="middle" style="font-size:9px;font-family:sans-serif;" y="-4.275032043457031" transform="translate(276.225 213.0257)" fill="#333" stroke="rgb(255,255,255)" stroke-width="2" paint-order="stroke" stroke-miterlimit="2">3,083</text>
<path d="M0 0l239.25 0l0 30l-239.25 0Z" transform="matrix(1,0,0,-1,50.65,303.5)" fill="rgb(47,69,84)" fill-opacity="0"></path>
<g clip-path="url(#zr1-c0)">
<polygon points="239.3 0 0 0 0 17.3 6.6 20.9 13.3 24.4 19.9 18.6 26.6 16.9 33.2 13.1 39.9 12.2 46.5 12.8 53.2 13.7 59.8 11.5 66.5 10.1 73.1 9.9 79.8 10 86.4 10.5 93 9 99.7 8.1 106.3 8 113 7.3 119.6 6.9 126.3 6.4 132.9 6.3 139.6 6.9 146.2 7 152.9 6.9 159.5 6.9 166.1 7.1 172.8 6.8 179.4 6.3 186.1 6 192.7 5.9 199.4 6 206 6.2 212.7 6.4 219.3 6.3 226 6.1 232.6 6 239.3 5.6" transform="matrix(1,0,0,-1,50.65,303.5)" fill="#d2dbee" fill-opacity="0.2"></polygon>
</g>
<g clip-path="url(#zr1-c1)">
<polygon points="239.3 0 0 0 0 17.3 6.6 20.9 13.3 24.4 19.9 18.6 26.6 16.9 33.2 13.1 39.9 12.2 46.5 12.8 53.2 13.7 59.8 11.5 66.5 10.1 73.1 9.9 79.8 10 86.4 10.5 93 9 99.7 8.1 106.3 8 113 7.3 119.6 6.9 126.3 6.4 132.9 6.3 139.6 6.9 146.2 7 152.9 6.9 159.5 6.9 166.1 7.1 172.8 6.8 179.4 6.3 186.1 6 192.7 5.9 199.4 6 206 6.2 212.7 6.4 219.3 6.3 226 6.1 232.6 6 239.3 5.6" transform="matrix(1,0,0,-1,50.65,303.5)" fill="#8fb0f7" fill-opacity="0.2"></polygon>
</g>
<g clip-path="url(#zr1-c2)">
<polygon points="239.3 0 0 0 0 17.3 6.6 20.9 13.3 24.4 19.9 18.6 26.6 16.9 33.2 13.1 39.9 12.2 46.5 12.8 53.2 13.7 59.8 11.5 66.5 10.1 73.1 9.9 79.8 10 86.4 10.5 93 9 99.7 8.1 106.3 8 113 7.3 119.6 6.9 126.3 6.4 132.9 6.3 139.6 6.9 146.2 7 152.9 6.9 159.5 6.9 166.1 7.1 172.8 6.8 179.4 6.3 186.1 6 192.7 5.9 199.4 6 206 6.2 212.7 6.4 219.3 6.3 226 6.1 232.6 6 239.3 5.6" transform="matrix(1,0,0,-1,50.65,303.5)" fill="#d2dbee" fill-opacity="0.2"></polygon>
</g>
<g clip-path="url(#zr1-c0)">
<polyline points="0 17.3 6.6 20.9 13.3 24.4 19.9 18.6 26.6 16.9 33.2 13.1 39.9 12.2 46.5 12.8 53.2 13.7 59.8 11.5 66.5 10.1 73.1 9.9 79.8 10 86.4 10.5 93 9 99.7 8.1 106.3 8 113 7.3 119.6 6.9 126.3 6.4 132.9 6.3 139.6 6.9 146.2 7 152.9 6.9 159.5 6.9 166.1 7.1 172.8 6.8 179.4 6.3 186.1 6 192.7 5.9 199.4 6 206 6.2 212.7 6.4 219.3 6.3 226 6.1 232.6 6 239.3 5.6" transform="matrix(1,0,0,-1,50.65,303.5)" fill="none" stroke="#d2dbee" stroke-width="0.5"></polyline>
</g>
<g clip-path="url(#zr1-c1)">
<polyline points="0 17.3 6.6 20.9 13.3 24.4 19.9 18.6 26.6 16.9 33.2 13.1 39.9 12.2 46.5 12.8 53.2 13.7 59.8 11.5 66.5 10.1 73.1 9.9 79.8 10 86.4 10.5 93 9 99.7 8.1 106.3 8 113 7.3 119.6 6.9 126.3 6.4 132.9 6.3 139.6 6.9 146.2 7 152.9 6.9 159.5 6.9 166.1 7.1 172.8 6.8 179.4 6.3 186.1 6 192.7 5.9 199.4 6 206 6.2 212.7 6.4 219.3 6.3 226 6.1 232.6 6 239.3 5.6" transform="matrix(1,0,0,-1,50.65,303.5)" fill="none" stroke="#8fb0f7" stroke-width="0.5"></polyline>
</g>
<g clip-path="url(#zr1-c2)">
<polyline points="0 17.3 6.6 20.9 13.3 24.4 19.9 18.6 26.6 16.9 33.2 13.1 39.9 12.2 46.5 12.8 53.2 13.7 59.8 11.5 66.5 10.1 73.1 9.9 79.8 10 86.4 10.5 93 9 99.7 8.1 106.3 8 113 7.3 119.6 6.9 126.3 6.4 132.9 6.3 139.6 6.9 146.2 7 152.9 6.9 159.5 6.9 166.1 7.1 172.8 6.8 179.4 6.3 186.1 6 192.7 5.9 199.4 6 206 6.2 212.7 6.4 219.3 6.3 226 6.1 232.6 6 239.3 5.6" transform="matrix(1,0,0,-1,50.65,303.5)" fill="none" stroke="#d2dbee" stroke-width="0.5"></polyline>
</g>
<path d="M0 0l239.25 0l0 30l-239.25 0Z" transform="matrix(1,0,0,-1,50.65,303.5)" fill="none"></path>
<path d="M174.2746 0l64.9754 0l0 30l-64.9754 0Z" transform="matrix(1,0,0,-1,50.65,303.5)" fill="rgb(135,175,255)" fill-opacity="0.2"></path>
<path d="M3.5 0.5L236.5 0.5A3 3 0 0 1 239.5 3.5L239.5 26.5A3 3 0 0 1 236.5 29.5L3.5 29.5A3 3 0 0 1 0.5 26.5L0.5 3.5A3 3 0 0 1 3.5 0.5" transform="matrix(1,0,0,-1,50.65,303.5)" fill="rgb(0,0,0)" fill-opacity="0" stroke="#d2dbee"></path>
<path d="M174.2746 29.5L239.25 29.5L239.25 34.5A2 2 0 0 1 237.25 36.5L176.2746 36.5A2 2 0 0 1 174.2746 34.5L174.2746 29.5" transform="matrix(1,0,0,-1,50.65,303.5)" fill="rgb(210,219,238)" fill-opacity="0.7"></path>
<path d="M-2.2408 -1.6796C-1.8674 -1.6796 -1.6817 -1.4939 -1.6817 -1.1204L-1.6817 1.1204C-1.6817 1.4939 -1.8674 1.6796 -2.2408 1.6796C-2.6143 1.6796 -2.8 1.4939 -2.8 1.1204L-2.8 -1.1204C-2.8 -1.4939 -2.6143 -1.6796 -2.2408 -1.6796ZM0 -1.6796C0.3735 -1.6796 0.5592 -1.4939 0.5592 -1.1204L0.5592 1.1204C0.5592 1.4939 0.3735 1.6796 0 1.6796C-0.3735 1.6796 -0.5592 1.4939 -0.5592 1.1204L-0.5592 -1.1204C-0.5592 -1.4939 -0.3735 -1.6796 0 -1.6796ZM2.2408 -1.6796C2.6143 -1.6796 2.8 -1.4939 2.8 -1.1204L2.8 1.1204C2.8 1.4939 2.6143 1.6796 2.2408 1.6796C1.8674 1.6796 1.6817 1.4939 1.6817 1.1204L1.6817 -1.1204C1.6796 -1.4939 1.8674 -1.6796 2.2408 -1.6796Z" transform="matrix(1,0,0,-1,257.4123,270.5)" fill="#fff"></path>
<path d="M0.07 0.1215L0.07 0L-0.0608 0L-0.0608 0.1215C-0.5188 0.1495 -0.8833 0.5327 -0.8833 1C-0.8833 1.4673 -0.5188 1.8505 -0.0608 1.8785L-0.0608 2L0.0607 2L0.0607 1.8785C0.5186 1.8505 0.8831 1.4673 0.8831 1C0.8924 0.5327 0.5279 0.1495 0.07 0.1215ZM0.313 1.2897L-0.3038 1.2897L-0.3038 1.1589L0.313 1.1589L0.313 1.2897ZM0.313 0.8411L-0.3038 0.8411L-0.3038 0.7103L0.313 0.7103L0.313 0.8411Z" transform="matrix(12,0,0,-12,225.9246,300.5)" fill="rgb(255,255,255)" stroke="rgb(172,184,209)" stroke-width="0.08333333333333333" filter="url(#zr1-s0)"></path>
<path d="M0.07 0.1215L0.07 0L-0.0608 0L-0.0608 0.1215C-0.5188 0.1495 -0.8833 0.5327 -0.8833 1C-0.8833 1.4673 -0.5188 1.8505 -0.0608 1.8785L-0.0608 2L0.0607 2L0.0607 1.8785C0.5186 1.8505 0.8831 1.4673 0.8831 1C0.8924 0.5327 0.5279 0.1495 0.07 0.1215ZM0.313 1.2897L-0.3038 1.2897L-0.3038 1.1589L0.313 1.1589L0.313 1.2897ZM0.313 0.8411L-0.3038 0.8411L-0.3038 0.7103L0.313 0.7103L0.313 0.8411Z" transform="matrix(12,0,0,-12,288.9,300.5)" fill="#fff" stroke="#ACB8D1" stroke-width="0.08333333333333333" filter="url(#zr1-s0)"></path>
<defs >
<clipPath id="zr1-c0">
<path d="M0 0l174.2746 0l0 30l-174.2746 0Z" transform="matrix(1,0,0,-1,50.65,303.5)" fill="#000"></path>
</clipPath>
<clipPath id="zr1-c1">
<path d="M174.2746 0l64.9754 0l0 30l-64.9754 0Z" transform="matrix(1,0,0,-1,50.65,303.5)" fill="#000"></path>
</clipPath>
<clipPath id="zr1-c2">
<path d="M239.25 0l0 0l0 30l0 0Z" transform="matrix(1,0,0,-1,50.65,303.5)" fill="#000"></path>
</clipPath>
<filter id="zr1-s0" x="-100%" y="-100%" width="300%" height="300%">
<feDropShadow dx="0.16666666666666666" dy="-0.16666666666666666" stdDeviation="0.125 -0.125" flood-color="rgb(0,0,0)" flood-opacity="0.6"></feDropShadow>
</filter>
</defs>
</svg>
