<svg width="381" height="300" xmlns="http://www.w3.org/2000/svg" xmlns:xlink="http://www.w3.org/1999/xlink" version="1.1" baseProfile="full" viewBox="0 0 381 300">
<rect width="381" height="300" x="0" y="0" id="0" fill="none" fill-opacity="1"></rect>
<path d="M57.15 225.5L342.9 225.5" fill="none" stroke="#E0E6F1"></path>
<path d="M57.15 183.5L342.9 183.5" fill="none" stroke="#E0E6F1"></path>
<path d="M57.15 141.5L342.9 141.5" fill="none" stroke="#E0E6F1"></path>
<path d="M57.15 99.5L342.9 99.5" fill="none" stroke="#E0E6F1"></path>
<path d="M57.15 57.5L342.9 57.5" fill="none" stroke="#E0E6F1"></path>
<path d="M57.15 15.5L342.9 15.5" fill="none" stroke="#E0E6F1"></path>
<text dominant-baseline="central" text-anchor="middle" style="font-size:12px;font-family:Microsoft YaHei;" y="-31" transform="matrix(0,-1,1,0,34.15,120)" fill="#6E7079">Count</text>
<path d="M57.15 225.5L342.9 225.5" fill="none" stroke="#6E7079" stroke-linecap="round"></path>
<text dominant-baseline="central" text-anchor="middle" style="font-size:12px;font-family:Microsoft YaHei;" y="16" transform="translate(200.025 240)" fill="#6E7079">Date</text>
<path d="M83.5 225L83.5 230" fill="none" stroke="#6E7079"></path>
<path d="M161.5 225L161.5 230" fill="none" stroke="#6E7079"></path>
<path d="M239.5 225L239.5 230" fill="none" stroke="#6E7079"></path>
<path d="M317.5 225L317.5 230" fill="none" stroke="#6E7079"></path>
<path d="M343.5 225L343.5 230" fill="none" stroke="#6E7079"></path>
<text dominant-baseline="central" text-anchor="end" style="font-size:10px;font-family:Microsoft YaHei;" transform="translate(51.15 225)" fill="#6E7079">0</text>
<text dominant-baseline="central" text-anchor="end" style="font-size:10px;font-family:Microsoft YaHei;" transform="translate(51.15 183)" fill="#6E7079">20,000</text>
<text dominant-baseline="central" text-anchor="end" style="font-size:10px;font-family:Microsoft YaHei;" transform="translate(51.15 141)" fill="#6E7079">40,000</text>
<text dominant-baseline="central" text-anchor="end" style="font-size:10px;font-family:Microsoft YaHei;" transform="translate(51.15 99)" fill="#6E7079">60,000</text>
<text dominant-baseline="central" text-anchor="end" style="font-size:10px;font-family:Microsoft YaHei;" transform="translate(51.15 57)" fill="#6E7079">80,000</text>
<text dominant-baseline="central" text-anchor="end" style="font-size:10px;font-family:Microsoft YaHei;" transform="translate(51.15 15)" fill="#6E7079">100,000</text>
<text dominant-baseline="central" text-anchor="middle" style="font-size:12px;font-family:Microsoft YaHei;" xml:space="preserve" y="6" transform="translate(96.1159 233)" fill="#6E7079">Feb 2024</text>
<text dominant-baseline="central" text-anchor="middle" style="font-size:12px;font-family:Microsoft YaHei;" xml:space="preserve" y="6" transform="translate(174.0477 233)" fill="#6E7079">May 2024</text>
<text dominant-baseline="central" text-anchor="middle" style="font-size:12px;font-family:Microsoft YaHei;" xml:space="preserve" y="6" transform="translate(251.9795 233)" fill="#6E7079">Aug 2024</text>
<text dominant-baseline="central" text-anchor="middle" style="font-size:12px;font-family:Microsoft YaHei;" xml:space="preserve" y="6" transform="translate(329.9114 233)" fill="#6E7079">Nov 2024</text>
<path d="M87.1538 225l17.9243 0l0 -110.2437l-17.9243 0Z" fill="rgb(11,163,218)" stroke="#0ba3da"></path>
<path d="M113.131 225l17.9243 0l0 -69.6969l-17.9243 0Z" fill="rgb(11,163,218)" stroke="#0ba3da"></path>
<path d="M139.1083 225l17.9243 0l0 -51.807l-17.9243 0Z" fill="#0ba3da" stroke="#0ba3da"></path>
<path d="M165.0856 225l17.9243 0l0 -67.704l-17.9243 0Z" fill="rgb(11,163,218)" stroke="#0ba3da"></path>
<path d="M191.0628 225l17.9243 0l0 -92.5638l-17.9243 0Z" fill="rgb(11,163,218)" stroke="#0ba3da"></path>
<path d="M217.0401 225l17.9243 0l0 -120.5148l-17.9243 0Z" fill="rgb(11,163,218)" stroke="#0ba3da"></path>
<path d="M243.0174 225l17.9243 0l0 -104.6325l-17.9243 0Z" fill="rgb(11,163,218)" stroke="#0ba3da"></path>
<path d="M268.9947 225l17.9243 0l0 -86.9253l-17.9243 0Z" fill="#0ba3da" stroke="#0ba3da"></path>
<path d="M294.9719 225l17.9243 0l0 -60.8769l-17.9243 0Z" fill="rgb(11,163,218)" stroke="#0ba3da"></path>
<path d="M320.9492 225l17.9243 0l0 -11.613l-17.9243 0Z" fill="#0ba3da" stroke="#0ba3da"></path>
<path d="M61.1765 225l17.9243 0l0 -184.0839l-17.9243 0Z" fill="rgb(11,163,218)" stroke="#0ba3da"></path>
<text dominant-baseline="central" text-anchor="middle" style="font-size:9px;font-family:Microsoft YaHei;" y="-4.5" transform="translate(96.1159 109.2563)" fill="#333" stroke="rgb(255,255,255)" stroke-width="2" paint-order="stroke" stroke-miterlimit="2">52,497</text>
<text dominant-baseline="central" text-anchor="middle" style="font-size:9px;font-family:Microsoft YaHei;" y="-4.5" transform="translate(122.0932 149.8031)" fill="#333" stroke="rgb(255,255,255)" stroke-width="2" paint-order="stroke" stroke-miterlimit="2">33,189</text>
<text dominant-baseline="central" text-anchor="middle" style="font-size:9px;font-family:Microsoft YaHei;" y="-4.5" transform="translate(148.0705 167.693)" fill="#333" stroke="rgb(255,255,255)" stroke-width="2" paint-order="stroke" stroke-miterlimit="2">24,670</text>
<text dominant-baseline="central" text-anchor="middle" style="font-size:9px;font-family:Microsoft YaHei;" y="-4.5" transform="translate(174.0477 151.796)" fill="#333" stroke="rgb(255,255,255)" stroke-width="2" paint-order="stroke" stroke-miterlimit="2">32,240</text>
<text dominant-baseline="central" text-anchor="middle" style="font-size:9px;font-family:Microsoft YaHei;" y="-4.5" transform="translate(200.025 126.9362)" fill="#333" stroke="rgb(255,255,255)" stroke-width="2" paint-order="stroke" stroke-miterlimit="2">44,078</text>
<text dominant-baseline="central" text-anchor="middle" style="font-size:9px;font-family:Microsoft YaHei;" y="-4.5" transform="translate(226.0023 98.9852)" fill="#333" stroke="rgb(255,255,255)" stroke-width="2" paint-order="stroke" stroke-miterlimit="2">57,388</text>
<text dominant-baseline="central" text-anchor="middle" style="font-size:9px;font-family:Microsoft YaHei;" y="-4.5" transform="translate(251.9795 114.8675)" fill="#333" stroke="rgb(255,255,255)" stroke-width="2" paint-order="stroke" stroke-miterlimit="2">49,825</text>
<text dominant-baseline="central" text-anchor="middle" style="font-size:9px;font-family:Microsoft YaHei;" y="-4.5" transform="translate(277.9568 132.5747)" fill="#333" stroke="rgb(255,255,255)" stroke-width="2" paint-order="stroke" stroke-miterlimit="2">41,393</text>
<text dominant-baseline="central" text-anchor="middle" style="font-size:9px;font-family:Microsoft YaHei;" y="-4.5" transform="translate(303.9341 158.6231)" fill="#333" stroke="rgb(255,255,255)" stroke-width="2" paint-order="stroke" stroke-miterlimit="2">28,989</text>
<text dominant-baseline="central" text-anchor="middle" style="font-size:9px;font-family:Microsoft YaHei;" y="-4.5" transform="translate(329.9114 207.887)" fill="#333" stroke="rgb(255,255,255)" stroke-width="2" paint-order="stroke" stroke-miterlimit="2">5,530</text>
<text dominant-baseline="central" text-anchor="middle" style="font-size:9px;font-family:Microsoft YaHei;" y="-4.5" transform="translate(70.1386 35.4161)" fill="#333" stroke="rgb(255,255,255)" stroke-width="2" paint-order="stroke" stroke-miterlimit="2">87,659</text>
<path d="M0 0l285.75 0l0 30l-285.75 0Z" transform="matrix(1,0,0,-1,59.95,303.5)" fill="rgb(47,69,84)" fill-opacity="0"></path>
<g clip-path="url(#zr1-c0)">
<polygon points="285.8 0 0 0 0 17.3 7.9 20.9 15.9 24.4 23.8 18.6 31.8 16.9 39.7 13.1 47.6 12.2 55.6 12.8 63.5 13.7 71.4 11.5 79.4 10.1 87.3 9.8 95.3 10 103.2 10.5 111.1 8.9 119.1 8.1 127 8 134.9 7.2 142.9 6.9 150.8 6.4 158.8 6.3 166.7 6.8 174.6 7 182.6 6.9 190.5 6.9 198.4 7 206.4 6.8 214.3 6.3 222.3 6 230.2 5.9 238.1 6 246.1 6.2 254 6.3 261.9 6.2 269.9 6.1 277.8 5.9 285.8 5.6" transform="matrix(1,0,0,-1,59.95,303.5)" fill="#d2dbee" fill-opacity="0.2"></polygon>
</g>
<g clip-path="url(#zr1-c1)">
<polygon points="285.8 0 0 0 0 17.3 7.9 20.9 15.9 24.4 23.8 18.6 31.8 16.9 39.7 13.1 47.6 12.2 55.6 12.8 63.5 13.7 71.4 11.5 79.4 10.1 87.3 9.8 95.3 10 103.2 10.5 111.1 8.9 119.1 8.1 127 8 134.9 7.2 142.9 6.9 150.8 6.4 158.8 6.3 166.7 6.8 174.6 7 182.6 6.9 190.5 6.9 198.4 7 206.4 6.8 214.3 6.3 222.3 6 230.2 5.9 238.1 6 246.1 6.2 254 6.3 261.9 6.2 269.9 6.1 277.8 5.9 285.8 5.6" transform="matrix(1,0,0,-1,59.95,303.5)" fill="#8fb0f7" fill-opacity="0.2"></polygon>
</g>
<g clip-path="url(#zr1-c2)">
<polygon points="285.8 0 0 0 0 17.3 7.9 20.9 15.9 24.4 23.8 18.6 31.8 16.9 39.7 13.1 47.6 12.2 55.6 12.8 63.5 13.7 71.4 11.5 79.4 10.1 87.3 9.8 95.3 10 103.2 10.5 111.1 8.9 119.1 8.1 127 8 134.9 7.2 142.9 6.9 150.8 6.4 158.8 6.3 166.7 6.8 174.6 7 182.6 6.9 190.5 6.9 198.4 7 206.4 6.8 214.3 6.3 222.3 6 230.2 5.9 238.1 6 246.1 6.2 254 6.3 261.9 6.2 269.9 6.1 277.8 5.9 285.8 5.6" transform="matrix(1,0,0,-1,59.95,303.5)" fill="#d2dbee" fill-opacity="0.2"></polygon>
</g>
<g clip-path="url(#zr1-c0)">
<polyline points="0 17.3 7.9 20.9 15.9 24.4 23.8 18.6 31.8 16.9 39.7 13.1 47.6 12.2 55.6 12.8 63.5 13.7 71.4 11.5 79.4 10.1 87.3 9.8 95.3 10 103.2 10.5 111.1 8.9 119.1 8.1 127 8 134.9 7.2 142.9 6.9 150.8 6.4 158.8 6.3 166.7 6.8 174.6 7 182.6 6.9 190.5 6.9 198.4 7 206.4 6.8 214.3 6.3 222.3 6 230.2 5.9 238.1 6 246.1 6.2 254 6.3 261.9 6.2 269.9 6.1 277.8 5.9 285.8 5.6" transform="matrix(1,0,0,-1,59.95,303.5)" fill="none" stroke="#d2dbee" stroke-width="0.5"></polyline>
</g>
<g clip-path="url(#zr1-c1)">
<polyline points="0 17.3 7.9 20.9 15.9 24.4 23.8 18.6 31.8 16.9 39.7 13.1 47.6 12.2 55.6 12.8 63.5 13.7 71.4 11.5 79.4 10.1 87.3 9.8 95.3 10 103.2 10.5 111.1 8.9 119.1 8.1 127 8 134.9 7.2 142.9 6.9 150.8 6.4 158.8 6.3 166.7 6.8 174.6 7 182.6 6.9 190.5 6.9 198.4 7 206.4 6.8 214.3 6.3 222.3 6 230.2 5.9 238.1 6 246.1 6.2 254 6.3 261.9 6.2 269.9 6.1 277.8 5.9 285.8 5.6" transform="matrix(1,0,0,-1,59.95,303.5)" fill="none" stroke="#8fb0f7" stroke-width="0.5"></polyline>
</g>
<g clip-path="url(#zr1-c2)">
<polyline points="0 17.3 7.9 20.9 15.9 24.4 23.8 18.6 31.8 16.9 39.7 13.1 47.6 12.2 55.6 12.8 63.5 13.7 71.4 11.5 79.4 10.1 87.3 9.8 95.3 10 103.2 10.5 111.1 8.9 119.1 8.1 127 8 134.9 7.2 142.9 6.9 150.8 6.4 158.8 6.3 166.7 6.8 174.6 7 182.6 6.9 190.5 6.9 198.4 7 206.4 6.8 214.3 6.3 222.3 6 230.2 5.9 238.1 6 246.1 6.2 254 6.3 261.9 6.2 269.9 6.1 277.8 5.9 285.8 5.6" transform="matrix(1,0,0,-1,59.95,303.5)" fill="none" stroke="#d2dbee" stroke-width="0.5"></polyline>
</g>
<path d="M0 0l285.75 0l0 30l-285.75 0Z" transform="matrix(1,0,0,-1,59.95,303.5)" fill="none"></path>
<path d="M207.7142 0l78.0358 0l0 30l-78.0358 0Z" transform="matrix(1,0,0,-1,59.95,303.5)" fill="rgb(135,175,255)" fill-opacity="0.2"></path>
<path d="M3.5 0.5L282.5 0.5A3 3 0 0 1 285.5 3.5L285.5 26.5A3 3 0 0 1 282.5 29.5L3.5 29.5A3 3 0 0 1 0.5 26.5L0.5 3.5A3 3 0 0 1 3.5 0.5" transform="matrix(1,0,0,-1,59.95,303.5)" fill="rgb(0,0,0)" fill-opacity="0" stroke="#d2dbee"></path>
<path d="M207.7142 29.5L285.75 29.5L285.75 34.5A2 2 0 0 1 283.75 36.5L209.7142 36.5A2 2 0 0 1 207.7142 34.5L207.7142 29.5" transform="matrix(1,0,0,-1,59.95,303.5)" fill="rgb(210,219,238)" fill-opacity="0.7"></path>
<path d="M-2.2408 -1.6796C-1.8674 -1.6796 -1.6817 -1.4939 -1.6817 -1.1204L-1.6817 1.1204C-1.6817 1.4939 -1.8674 1.6796 -2.2408 1.6796C-2.6143 1.6796 -2.8 1.4939 -2.8 1.1204L-2.8 -1.1204C-2.8 -1.4939 -2.6143 -1.6796 -2.2408 -1.6796ZM0 -1.6796C0.3735 -1.6796 0.5592 -1.4939 0.5592 -1.1204L0.5592 1.1204C0.5592 1.4939 0.3735 1.6796 0 1.6796C-0.3735 1.6796 -0.5592 1.4939 -0.5592 1.1204L-0.5592 -1.1204C-0.5592 -1.4939 -0.3735 -1.6796 0 -1.6796ZM2.2408 -1.6796C2.6143 -1.6796 2.8 -1.4939 2.8 -1.1204L2.8 1.1204C2.8 1.4939 2.6143 1.6796 2.2408 1.6796C1.8674 1.6796 1.6817 1.4939 1.6817 1.1204L1.6817 -1.1204C1.6796 -1.4939 1.8674 -1.6796 2.2408 -1.6796Z" transform="matrix(1,0,0,-1,306.6821,270.5)" fill="#fff"></path>
<path d="M0.07 0.1215L0.07 0L-0.0608 0L-0.0608 0.1215C-0.5188 0.1495 -0.8833 0.5327 -0.8833 1C-0.8833 1.4673 -0.5188 1.8505 -0.0608 1.8785L-0.0608 2L0.0607 2L0.0607 1.8785C0.5186 1.8505 0.8831 1.4673 0.8831 1C0.8924 0.5327 0.5279 0.1495 0.07 0.1215ZM0.313 1.2897L-0.3038 1.2897L-0.3038 1.1589L0.313 1.1589L0.313 1.2897ZM0.313 0.8411L-0.3038 0.8411L-0.3038 0.7103L0.313 0.7103L0.313 0.8411Z" transform="matrix(12,0,0,-12,268.6642,300.5)" fill="rgb(255,255,255)" stroke="rgb(172,184,209)" stroke-width="0.08333333333333333" filter="url(#zr1-s0)"></path>
<path d="M0.07 0.1215L0.07 0L-0.0608 0L-0.0608 0.1215C-0.5188 0.1495 -0.8833 0.5327 -0.8833 1C-0.8833 1.4673 -0.5188 1.8505 -0.0608 1.8785L-0.0608 2L0.0607 2L0.0607 1.8785C0.5186 1.8505 0.8831 1.4673 0.8831 1C0.8924 0.5327 0.5279 0.1495 0.07 0.1215ZM0.313 1.2897L-0.3038 1.2897L-0.3038 1.1589L0.313 1.1589L0.313 1.2897ZM0.313 0.8411L-0.3038 0.8411L-0.3038 0.7103L0.313 0.7103L0.313 0.8411Z" transform="matrix(12,0,0,-12,344.7,300.5)" fill="#fff" stroke="#ACB8D1" stroke-width="0.08333333333333333" filter="url(#zr1-s0)"></path>
<defs >
<clipPath id="zr1-c0">
<path d="M0 0l207.7142 0l0 30l-207.7142 0Z" transform="matrix(1,0,0,-1,59.95,303.5)" fill="#000"></path>
</clipPath>
<clipPath id="zr1-c1">
<path d="M207.7142 0l78.0358 0l0 30l-78.0358 0Z" transform="matrix(1,0,0,-1,59.95,303.5)" fill="#000"></path>
</clipPath>
<clipPath id="zr1-c2">
<path d="M285.75 0l0 0l0 30l0 0Z" transform="matrix(1,0,0,-1,59.95,303.5)" fill="#000"></path>
</clipPath>
<filter id="zr1-s0" x="-100%" y="-100%" width="300%" height="300%">
<feDropShadow dx="0.16666666666666666" dy="-0.16666666666666666" stdDeviation="0.125 -0.125" flood-color="rgb(0,0,0)" flood-opacity="0.6"></feDropShadow>
</filter>
</defs>
</svg>